<svg xmlns="http://www.w3.org/2000/svg" viewBox="0 0 1000 700" width="1000" height="700">
  <defs>
    <radialGradient id="glow" cx="50%" cy="50%" r="50%">
      <stop offset="0%" stop-color="#ffffff" stop-opacity="0.15"/>
      <stop offset="100%" stop-color="#ffffff" stop-opacity="0"/>
    </radialGradient>
    <filter id="noise">
      <feTurbulence type="fractalNoise" baseFrequency="0.9" numOctaves="4" result="noise"/>
      <feColorMatrix type="saturate" values="0" in="noise" result="gray"/>
      <feBlend in="SourceGraphic" in2="gray" mode="multiply"/>
    </filter>
  </defs>

  <rect x="0" y="0" width="1000" height="700" fill="#009739"/>

  <polygon points="500,100 850,350 500,600 150,350" fill="#FFDF00"/>

  <circle cx="500" cy="350" r="175" fill="#002776"/>

  <g fill="#ffffff">
    <path d="M500,232 l3.08,9.48h9.97l-8.07,5.86 3.08,9.48L500,250.97l-8.07,5.86 3.08-9.48-8.07-5.86h9.97z" transform="translate(-330,-100)scale(0.6)"/>
    <path d="M500,232 l3.08,9.48h9.97l-8.07,5.86 3.08,9.48L500,250.97l-8.07,5.86 3.08-9.48-8.07-5.86h9.97z" transform="translate(-295,-80)scale(0.5)"/>
    <path d="M500,232 l3.08,9.48h9.97l-8.07,5.86 3.08,9.48L500,250.97l-8.07,5.86 3.08-9.48-8.07-5.86h9.97z" transform="translate(-325,-70)scale(0.4)"/>
    <path d="M500,232 l3.08,9.48h9.97l-8.07,5.86 3.08,9.48L500,250.97l-8.07,5.86 3.08-9.48-8.07-5.86h9.97z" transform="translate(-290,-55)scale(0.7)"/>
    <path d="M500,232 l3.08,9.48h9.97l-8.07,5.86 3.08,9.48L500,250.97l-8.07,5.86 3.08-9.48-8.07-5.86h9.97z" transform="translate(-310,-55)scale(0.45)"/>

    <path d="M500,232 l3.08,9.48h9.97l-8.07,5.86 3.08,9.48L500,250.97l-8.07,5.86 3.08-9.48-8.07-5.86h9.97z" transform="translate(-200,-160)scale(0.6)"/>
    <path d="M500,232 l3.08,9.48h9.97l-8.07,5.86 3.08,9.48L500,250.97l-8.07,5.86 3.08-9.48-8.07-5.86h9.97z" transform="translate(-170,-150)scale(0.5)"/>
    <path d="M500,232 l3.08,9.48h9.97l-8.07,5.86 3.08,9.48L500,250.97l-8.07,5.86 3.08-9.48-8.07-5.86h9.97z" transform="translate(-155,-170)scale(0.4)"/>
    <path d="M500,232 l3.08,9.48h9.97l-8.07,5.86 3.08,9.48L500,250.97l-8.07,5.86 3.08-9.48-8.07-5.86h9.97z" transform="translate(-200,-135)scale(0.7)"/>
    <path d="M500,232 l3.08,9.48h9.97l-8.07,5.86 3.08,9.48L500,250.97l-8.07,5.86 3.08-9.48-8.07-5.86h9.97z" transform="translate(-185,-145)scale(0.45)"/>

    <path d="M500,232 l3.08,9.48h9.97l-8.07,5.86 3.08,9.48L500,250.97l-8.07,5.86 3.08-9.48-8.07-5.86h9.97z" transform="translate(-230,-60)scale(0.5)"/>
    <path d="M500,232 l3.08,9.48h9.97l-8.07,5.86 3.08,9.48L500,250.97l-8.07,5.86 3.08-9.48-8.07-5.86h9.97z" transform="translate(-240,-45)scale(0.4)"/>
    <path d="M500,232 l3.08,9.48h9.97l-8.07,5.86 3.08,9.48L500,250.97l-8.07,5.86 3.08-9.48-8.07-5.86h9.97z" transform="translate(-215,-35)scale(0.55)"/>

    <path d="M500,232 l3.08,9.48h9.97l-8.07,5.86 3.08,9.48L500,250.97l-8.07,5.86 3.08-9.48-8.07-5.86h9.97z" transform="translate(-320,-220)scale(0.5)"/>
    <path d="M500,232 l3.08,9.48h9.97l-8.07,5.86 3.08,9.48L500,250.97l-8.07,5.86 3.08-9.48-8.07-5.86h9.97z" transform="translate(-295,-235)scale(0.4)"/>
    <path d="M500,232 l3.08,9.48h9.97l-8.07,5.86 3.08,9.48L500,250.97l-8.07,5.86 3.08-9.48-8.07-5.86h9.97z" transform="translate(-310,-245)scale(0.55)"/>

    <path d="M500,232 l3.08,9.48h9.97l-8.07,5.86 3.08,9.48L500,250.97l-8.07,5.86 3.08-9.48-8.07-5.86h9.97z" transform="translate(-130,-130)scale(0.55)"/>
    <path d="M500,232 l3.08,9.48h9.97l-8.07,5.86 3.08,9.48L500,250.97l-8.07,5.86 3.08-9.48-8.07-5.86h9.97z" transform="translate(-120,-115)scale(0.45)"/>

    <path d="M500,232 l3.08,9.48h9.97l-8.07,5.86 3.08,9.48L500,250.97l-8.07,5.86 3.08-9.48-8.07-5.86h9.97z" transform="translate(-270,-130)scale(0.45)"/>
    <path d="M500,232 l3.08,9.48h9.97l-8.07,5.86 3.08,9.48L500,250.97l-8.07,5.86 3.08-9.48-8.07-5.86h9.97z" transform="translate(-250,-115)scale(0.35)"/>

    <path d="M500,232 l3.08,9.48h9.97l-8.07,5.86 3.08,9.48L500,250.97l-8.07,5.86 3.08-9.48-8.07-5.86h9.97z" transform="translate(-155,-200)scale(0.4)"/>
    <path d="M500,232 l3.08,9.48h9.97l-8.07,5.86 3.08,9.48L500,250.97l-8.07,5.86 3.08-9.48-8.07-5.86h9.97z" transform="translate(-140,-190)scale(0.35)"/>

    <path d="M500,232 l3.08,9.48h9.97l-8.07,5.86 3.08,9.48L500,250.97l-8.07,5.86 3.08-9.48-8.07-5.86h9.97z" transform="translate(-220,-200)scale(0.55)"/>
    <path d="M500,232 l3.08,9.48h9.97l-8.07,5.86 3.08,9.48L500,250.97l-8.07,5.86 3.08-9.48-8.07-5.86h9.97z" transform="translate(-200,-210)scale(0.4)"/>
  </g>

  <path d="M 340,365 Q 500,350 660,365" fill="none" stroke="#ffffff" stroke-width="12" opacity="0.95"/>
  <path d="M 345,370 Q 500,355 655,370" fill="none" stroke="#ffffff" stroke-width="12" opacity="0.95"/>
  <rect x="340" y="359" width="320" height="16" fill="#ffffff" rx="2"/>

  <text x="500" y="375" font-family="sans-serif" font-size="13" font-weight="bold" fill="#009739" text-anchor="middle" letter-spacing="4">ORDEM E PROGRESSO</text>

  <rect x="0" y="0" width="1000" height="700" fill="url(#glow)"/>
</svg>
